<?xml version="1.0" encoding="UTF-8" standalone="no"?>
<svg
   xmlns:dc="http://purl.org/dc/elements/1.1/"
   xmlns:cc="http://creativecommons.org/ns#"
   xmlns:rdf="http://www.w3.org/1999/02/22-rdf-syntax-ns#"
   xmlns:svg="http://www.w3.org/2000/svg"
   xmlns="http://www.w3.org/2000/svg"
   xmlns:sodipodi="http://sodipodi.sourceforge.net/DTD/sodipodi-0.dtd"
   xmlns:inkscape="http://www.inkscape.org/namespaces/inkscape"
   version="1.1"
   id="svg895"
   inkscape:version="1.0 (4035a4fb49, 2020-05-01)"
   sodipodi:docname="logo3.svg"
   x="0px"
   y="0px"
   viewBox="0 0 649 349"
   style="enable-background:new 0 0 649 349;"
   xml:space="preserve"><metadata
   id="metadata873"><rdf:RDF><cc:Work
       rdf:about=""><dc:format>image/svg+xml</dc:format><dc:type
         rdf:resource="http://purl.org/dc/dcmitype/StillImage" /></cc:Work></rdf:RDF></metadata><defs
   id="defs871" />
<style
   type="text/css"
   id="style854">
	.st0{display:none;}
	.st1{display:inline;fill:#00C927;}
	.st2{fill:#0F4C75;}
	.st3{fill:#3282B8;}
	.st4{fill:#FF7373;}
	.st5{font-family:'CenturyGothic-Bold';}
	.st6{font-size:200px;}
	.st7{fill:#1B262C;}
	.st8{font-size:65px;}
</style>
<sodipodi:namedview
   bordercolor="#666666"
   borderopacity="1"
   gridtolerance="10"
   guidetolerance="10"
   id="namedview897"
   inkscape:current-layer="svg895"
   inkscape:cx="566.16106"
   inkscape:cy="159.90391"
   inkscape:pageopacity="0"
   inkscape:pageshadow="2"
   inkscape:window-height="705"
   inkscape:window-maximized="1"
   inkscape:window-width="1366"
   inkscape:window-x="-8"
   inkscape:window-y="-8"
   inkscape:zoom="0.90617652"
   objecttolerance="10"
   pagecolor="#ffffff"
   showgrid="false"
   inkscape:document-rotation="0">
	</sodipodi:namedview>
<g
   id="Capa_5"
   class="st0">
	<rect
   id="rect870"
   y="-36.3"
   class="st1"
   width="262"
   height="385.3" />
</g>
<g
   id="svg833_copia_2"
   transform="translate(-2,-4)"
   inkscape:export-filename="C:\Users\Nico\Desktop\MISSING\logo_OK.png"
   inkscape:export-xdpi="96"
   inkscape:export-ydpi="96"
   inkscape:version="1.0 (4035a4fb49, 2020-05-01)"
   sodipodi:docname="logob.svg">
	
		<sodipodi:namedview
   bordercolor="#666666"
   borderopacity="1"
   gridtolerance="10"
   guidetolerance="10"
   id="namedview835"
   inkscape:current-layer="g841"
   inkscape:cx="332.96794"
   inkscape:cy="273.95922"
   inkscape:pageopacity="0"
   inkscape:pageshadow="2"
   inkscape:window-height="705"
   inkscape:window-maximized="1"
   inkscape:window-width="1366"
   inkscape:window-x="-8"
   inkscape:window-y="-8"
   inkscape:zoom="0.79574649"
   objecttolerance="10"
   pagecolor="#ffffff"
   showgrid="false">
		</sodipodi:namedview>
	<ellipse
   id="ellipse874"
   class="st2"
   cx="116.9"
   cy="330.5"
   rx="60.4"
   ry="11.9" />
</g>
<path
   id="path903"
   sodipodi:nodetypes="cscscscccscccsccc"
   class="st3"
   d="M114,11.3c-18.5-0.2-82.9,13.3-93.7,86.5  c-0.4,2.7-0.3,3.3-0.6,7.8c0.2,5.4,0.2,6.2,0.6,9.1c9.7,67.6,64.7,145.3,95.5,207c37.5-72,88.4-149.2,96.2-209.7  c0.2-1.8,0.2-3.5,0.4-5.2c0-1.5,0-6.3-0.2-8.3c-2.7-25-20.1-83.4-96.7-87.1C115.2,11.3,114.6,11.3,114,11.3L114,11.3z M115.6,32.5  c0.1,0,0.2,0,0.3,0c41.1,0,74.3,32.8,74.3,73.3c0,40.5-33.3,73.3-74.3,73.3s-74.3-32.8-74.3-73.3C41.6,65.5,74.7,32.7,115.6,32.5z" />
<path
   id="path938"
   sodipodi:nodetypes="cscscscsc"
   class="st4"
   d="M115.6,73.4c13.8-20.6,58.7-23.7,64.5,18.3c0.1,0.6,0.1,2,0.1,1.9  c-0.1,1.3,0,1.3,0,1.9c-2.8,36-40.8,69.5-64.2,77.7c-47.7-21.3-61.7-59.7-64.3-75.5c-0.3-1.7-0.2-3.2-0.2-4.3c0-1.3,0.2-2.4,0.4-3.5  C61.1,47.9,105.5,54.9,115.6,73.4L115.6,73.4z" />
<text
   class="st2 st5 st6"
   id="text864"
   style="font-style:normal;font-variant:normal;font-weight:normal;font-stretch:normal;font-size:233.333px;font-family:sans-serif;-inkscape-font-specification:'sans-serif, Normal';font-variant-ligatures:normal;font-variant-caps:normal;font-variant-numeric:normal;font-variant-east-asian:normal;letter-spacing:-15px;word-spacing:0px;fill:#0f4c75"
   x="211.85558"
   y="232.49553"><tspan
     style="font-style:normal;font-variant:normal;font-weight:normal;font-stretch:normal;font-size:233.333px;font-family:Arial;-inkscape-font-specification:Arial"
     id="tspan875">en</tspan></text>
<text
   class="st7 st5 st8"
   id="text866"
   x="220.64415"
   y="290.50064"
   style="font-size:70.6667px"><tspan
     style="font-style:normal;font-variant:normal;font-weight:normal;font-stretch:normal;font-size:70.6667px;font-family:ARIAL;-inkscape-font-specification:ARIAL"
     id="tspan881">contrar</tspan></text>
<text
   class="st3 st5 st6"
   id="text868"
   style="font-size:233.333px;letter-spacing:-15px"
   x="444.92441"
   y="290.44269"><tspan
     style="font-style:normal;font-variant:normal;font-weight:normal;font-stretch:normal;font-size:233.333px;font-family:arial;-inkscape-font-specification:arial"
     id="tspan883">te</tspan></text>
</svg>
