<?xml version="1.0" encoding="utf-8"?>
<!-- Generator: Adobe Illustrator 24.1.2, SVG Export Plug-In . SVG Version: 6.00 Build 0)  -->
<svg version="1.1"
	 id="svg895" inkscape:version="1.0 (4035a4fb49, 2020-05-01)" sodipodi:docname="logob.svg" xmlns:cc="http://creativecommons.org/ns#" xmlns:dc="http://purl.org/dc/elements/1.1/" xmlns:inkscape="http://www.inkscape.org/namespaces/inkscape" xmlns:rdf="http://www.w3.org/1999/02/22-rdf-syntax-ns#" xmlns:sodipodi="http://sodipodi.sourceforge.net/DTD/sodipodi-0.dtd" xmlns:svg="http://www.w3.org/2000/svg"
	 xmlns="http://www.w3.org/2000/svg" xmlns:xlink="http://www.w3.org/1999/xlink" x="0px" y="0px" viewBox="0 0 391 349"
	 style="enable-background:new 0 0 391 349;" xml:space="preserve">
<style type="text/css">
	.st0{display:none;}
	.st1{display:inline;fill:#00C927;}
	.st2{fill:#0F4C75;}
	.st3{fill:#3282B8;}
	.st4{fill:#FF7373;}
	.st5{fill:#1B262C;}
	.st6{font-family:'CenturyGothic-Bold';}
	.st7{font-size:65px;}
	.st8{font-size:130px;}
</style>
<sodipodi:namedview  bordercolor="#666666" borderopacity="1" gridtolerance="10" guidetolerance="10" id="namedview897" inkscape:current-layer="svg895" inkscape:cx="166.88626" inkscape:cy="159.90391" inkscape:pageopacity="0" inkscape:pageshadow="2" inkscape:window-height="705" inkscape:window-maximized="1" inkscape:window-width="1366" inkscape:window-x="-8" inkscape:window-y="-8" inkscape:zoom="0.94513364" objecttolerance="10" pagecolor="#ffffff" showgrid="false">
	</sodipodi:namedview>
<g id="Capa_5" class="st0">
	<rect id="rect870" y="-36.3" class="st1" width="262" height="385.3"/>
</g>
<g id="svg833_copia_2" transform="translate(-2,-4)" inkscape:export-filename="C:\Users\Nico\Desktop\MISSING\logo_OK.png" inkscape:export-xdpi="96" inkscape:export-ydpi="96" inkscape:version="1.0 (4035a4fb49, 2020-05-01)" sodipodi:docname="logob.svg">
	
		<sodipodi:namedview  bordercolor="#666666" borderopacity="1" gridtolerance="10" guidetolerance="10" id="namedview835" inkscape:current-layer="g841" inkscape:cx="332.96794" inkscape:cy="273.95922" inkscape:pageopacity="0" inkscape:pageshadow="2" inkscape:window-height="705" inkscape:window-maximized="1" inkscape:window-width="1366" inkscape:window-x="-8" inkscape:window-y="-8" inkscape:zoom="0.79574649" objecttolerance="10" pagecolor="#ffffff" showgrid="false">
		</sodipodi:namedview>
	<ellipse id="ellipse874" class="st2" cx="108.9" cy="330.4" rx="60.4" ry="11.9"/>
</g>
<path id="path903" sodipodi:nodetypes="cscscscccscccsccc" class="st3" d="M106,11.3c-18.5-0.2-82.9,13.3-93.7,86.5
	c-0.4,2.7-0.3,3.3-0.6,7.8c0.2,5.4,0.2,6.2,0.6,9.1C22,182.3,77,260,107.8,321.7c37.5-72,88.4-149.2,96.2-209.7
	c0.2-1.8,0.2-3.5,0.4-5.2c0-1.5,0-6.3-0.2-8.3c-2.7-25-20.1-83.4-96.7-87.1C107.2,11.3,106.6,11.3,106,11.3L106,11.3z M107.6,32.5
	c0.1,0,0.2,0,0.3,0c41.1,0,74.3,32.8,74.3,73.3s-33.3,73.3-74.3,73.3s-74.3-32.8-74.3-73.3C33.6,65.4,66.7,32.7,107.6,32.5z"/>
<path id="path938" sodipodi:nodetypes="cscscscsc" class="st4" d="M107.6,73.3c13.8-20.6,58.7-23.7,64.5,18.3c0.1,0.6,0.1,2,0.1,1.9
	c-0.1,1.3,0,1.3,0,1.9c-2.8,36-40.8,69.5-64.2,77.7c-47.7-21.3-61.7-59.7-64.3-75.5c-0.3-1.7-0.2-3.2-0.2-4.3c0-1.3,0.2-2.4,0.4-3.5
	C53.1,47.8,97.5,54.9,107.6,73.3L107.6,73.3z"/>
<text transform="matrix(6.123234e-17 -1 1 6.123234e-17 257.0724 331.3244)" class="st5 st6 st7">encontrar</text>
<text transform="matrix(1 0 0 1 262.072 326.4242)" class="st3 st6 st8">te</text>
</svg>
